<?xml version="1.0" encoding="UTF-8"?>
<svg width="634px" height="160px" viewBox="0 0 634 160" version="1.1" xmlns="http://www.w3.org/2000/svg" xmlns:xlink="http://www.w3.org/1999/xlink">
    <!-- Generator: Sketch 57.1 (83088) - https://sketch.com -->
    <title>Artboard</title>
    <desc>Created with Sketch.</desc>
    <g id="Artboard" stroke="none" stroke-width="1" fill="none" fill-rule="evenodd">
        <rect fill="#FFFFFF" x="0" y="0" width="634" height="160"></rect>
        <g id="Icon" transform="translate(0.000000, -10.000000)">
            <path d="M142.42734,134.97408 C142.11684,135.51156 141.561,135.83268 140.94036,135.83268 L39.05982,135.83268 C38.439,135.83268 37.88316,135.51156 37.57284,134.97408 C37.26252,134.4366 37.26252,133.79472 37.57284,133.25706 L88.51302,45.02592 C88.82334,44.48844 89.37936,44.1675 90,44.1675 C90.62064,44.1675 91.17666,44.48844 91.48698,45.02592 L142.42734,133.25706 C142.73766,133.79472 142.73766,134.4366 142.42734,134.97408 Z M143.70192,132.52122 L92.76156,44.29008 C92.1852,43.2918 91.15272,42.69582 90,42.69582 C88.84728,42.69582 87.81498,43.2918 87.23862,44.29008 L36.29826,132.52122 C35.7219,133.5195 35.7219,134.71146 36.29826,135.70992 C36.87462,136.7082 37.9071,137.30436 39.05982,137.30436 L140.94036,137.30436 C142.09308,137.30436 143.12538,136.7082 143.70192,135.70992 C144.2781,134.71146 144.2781,133.5195 143.70192,132.52122 L143.70192,132.52122 Z" id="Fill-842" fill="#212C32"></path>
            <path d="M98.77176,93.195 L84.49002,121.7178 L88.17516,121.6656 L82.52748,126.25074 L81.38052,119.06712 L84.05694,121.55886 L91.38672,99.02826 L78.00732,101.45808 L88.12962,69.9138 L98.78958,68.78826 L85.92876,94.536 L98.77176,93.195 Z M138.64122,130.94802 L91.64178,49.54248 C90.91206,48.2787 89.08794,48.2787 88.35822,49.54248 L41.35878,130.94802 C40.62906,132.21198 41.54112,133.79166 43.00038,133.79166 L136.99944,133.79166 C138.45888,133.79166 139.37094,132.21198 138.64122,130.94802 L138.64122,130.94802 Z" id="Fill-843" fill="#F27642"></path>
        </g>
        <text id="Switchgear" font-family="Roboto-Light, Roboto" font-size="80" font-weight="300" fill="#212C32">
            <tspan x="180" y="107">Switchgear</tspan>
        </text>
    </g>
</svg>